<?xml version="1.0" encoding="UTF-8" standalone="no"?>
<!DOCTYPE svg PUBLIC "-//W3C//DTD SVG 1.1//EN" "http://www.w3.org/Graphics/SVG/1.1/DTD/svg11.dtd">
<svg xmlns="http://www.w3.org/2000/svg" version="1.1" viewBox="0.00 0.00 1992.00 412.00">
<path fill="#1f2726" d="
  M 1250.01 189.48
  L 1250.01 389.38
  A 0.54 0.54 0.0 0 1 1249.64 389.89
  Q 1196.27 407.72 1139.87 410.62
  Q 1119.73 411.65 1103.51 411.44
  Q 1075.07 411.08 1049.15 404.63
  Q 986.74 389.11 952.09 336.49
  C 933.61 308.43 924.17 273.91 920.87 239.85
  Q 918.00 210.17 920.29 180.76
  Q 922.43 153.41 930.16 128.68
  C 942.31 89.80 966.14 57.00 999.72 34.42
  C 1029.02 14.72 1063.62 4.53 1099.01 1.44
  C 1149.53 -2.97 1199.69 4.17 1246.34 24.12
  A 0.43 0.42 -67.4 0 1 1246.56 24.67
  L 1223.76 78.68
  A 0.41 0.40 23.5 0 1 1223.22 78.89
  C 1188.46 62.59 1149.69 54.16 1111.51 57.06
  C 1090.70 58.63 1070.05 64.24 1052.43 74.62
  C 1014.04 97.24 993.96 137.30 989.36 180.53
  Q 985.49 216.92 991.92 252.80
  Q 995.53 272.89 1003.83 290.64
  C 1019.64 324.44 1048.02 345.73 1084.15 352.80
  Q 1102.10 356.31 1120.26 355.99
  Q 1152.56 355.42 1184.95 348.09
  A 0.72 0.70 -6.7 0 0 1185.51 347.40
  L 1185.51 245.83
  A 0.58 0.58 0.0 0 0 1184.93 245.25
  L 1103.06 245.25
  A 0.58 0.57 0.0 0 1 1102.48 244.68
  L 1102.48 189.09
  A 0.34 0.34 0.0 0 1 1102.82 188.75
  L 1249.27 188.75
  A 0.74 0.73 0.0 0 1 1250.01 189.48
  Z"
/>
<path fill="#1f2726" d="
  M 301.15 405.76
  L 261.41 295.24
  A 0.36 0.36 0.0 0 0 261.07 295.00
  L 108.92 295.00
  A 0.36 0.36 0.0 0 0 108.59 295.24
  L 69.66 405.76
  A 0.36 0.36 0.0 0 1 69.33 406.00
  L 0.83 406.00
  A 0.36 0.36 0.0 0 1 0.49 405.51
  L 149.92 4.48
  A 0.36 0.36 0.0 0 1 150.26 4.25
  L 221.10 4.25
  A 0.36 0.36 0.0 0 1 221.44 4.48
  L 370.87 405.51
  A 0.36 0.36 0.0 0 1 370.53 406.00
  L 301.49 406.00
  A 0.36 0.36 0.0 0 1 301.15 405.76
  Z
  M 185.53 62.21
  A 0.11 0.11 0.0 0 0 185.31 62.22
  Q 176.98 97.32 165.27 130.73
  Q 153.30 164.92 128.09 237.97
  A 0.40 0.40 0.0 0 0 128.47 238.50
  L 243.43 238.50
  A 0.42 0.41 -9.4 0 0 243.83 237.95
  Q 215.28 154.81 207.81 133.41
  C 199.09 108.43 192.02 85.41 185.53 62.21
  Z"
/>
<path fill="#1f2726" d="
  M 423.47 405.26
  L 423.47 6.34
  A 0.34 0.33 -0.0 0 1 423.81 6.01
  Q 521.18 5.96 546.00 6.04
  Q 567.96 6.11 592.05 10.68
  Q 611.97 14.46 628.73 22.50
  Q 673.36 43.92 684.54 91.43
  Q 692.07 123.43 685.65 157.45
  C 676.77 204.60 643.77 234.89 598.56 247.77
  C 578.33 253.53 556.84 256.24 534.25 256.40
  Q 524.68 256.47 489.40 256.50
  A 0.40 0.40 0.0 0 0 489.00 256.90
  L 489.00 405.25
  A 0.75 0.75 0.0 0 1 488.25 406.00
  L 424.21 406.00
  A 0.74 0.74 0.0 0 1 423.47 405.26
  Z
  M 489.28 201.21
  Q 509.30 201.36 529.11 201.13
  Q 552.38 200.85 572.01 195.55
  C 588.94 190.98 603.60 182.08 612.40 166.66
  C 620.23 152.93 622.05 134.83 620.33 118.21
  C 617.64 92.16 602.90 74.15 577.73 66.50
  Q 561.10 61.45 542.24 61.04
  Q 518.76 60.53 489.19 60.85
  A 0.19 0.19 0.0 0 0 489.00 61.04
  L 489.00 200.93
  A 0.28 0.28 0.0 0 0 489.28 201.21
  Z"
/>
<rect fill="#1f2726" x="768.00" y="6.02" width="65.76" height="400.00" rx="0.66"/>
<path fill="#1f2726" d="
  M 1411.25 62.02
  L 1411.25 169.47
  A 0.53 0.53 0.0 0 0 1411.78 170.00
  L 1561.47 170.00
  A 0.53 0.53 0.0 0 1 1562.00 170.53
  L 1562.00 224.47
  A 0.53 0.53 0.0 0 1 1561.47 225.00
  L 1411.78 225.00
  A 0.53 0.53 0.0 0 0 1411.25 225.53
  L 1411.25 349.72
  A 0.53 0.53 0.0 0 0 1411.78 350.25
  L 1571.47 350.25
  A 0.53 0.53 0.0 0 1 1572.00 350.78
  L 1572.00 405.47
  A 0.53 0.53 0.0 0 1 1571.47 406.00
  L 1346.28 406.00
  A 0.53 0.53 0.0 0 1 1345.75 405.47
  L 1345.75 6.53
  A 0.53 0.53 0.0 0 1 1346.28 6.00
  L 1571.47 6.00
  A 0.53 0.53 0.0 0 1 1572.00 6.53
  L 1572.00 60.96
  A 0.53 0.53 0.0 0 1 1571.47 61.49
  L 1411.78 61.49
  A 0.53 0.53 0.0 0 0 1411.25 62.02
  Z"
/>
<path fill="#1f2726" d="
  M 1991.50 6.70
  L 1991.50 405.67
  A 0.33 0.33 0.0 0 1 1991.17 406.00
  L 1911.85 406.00
  A 1.14 1.12 -15.8 0 1 1910.89 405.47
  L 1714.89 87.90
  A 1.20 1.20 0.0 0 0 1712.71 88.24
  Q 1712.70 88.27 1712.76 89.00
  Q 1715.45 121.56 1716.81 150.80
  Q 1717.92 174.88 1717.79 212.72
  Q 1717.73 232.71 1717.78 405.57
  A 0.43 0.43 0.0 0 1 1717.35 406.00
  L 1658.65 406.00
  A 0.40 0.40 0.0 0 1 1658.25 405.60
  L 1658.25 6.32
  A 0.32 0.32 0.0 0 1 1658.57 6.00
  L 1737.50 6.00
  A 1.06 1.06 0.0 0 1 1738.40 6.50
  L 1933.63 322.84
  A 0.83 0.83 0.0 0 0 1935.17 322.36
  Q 1933.78 295.97 1932.46 261.92
  Q 1931.42 235.33 1931.45 201.45
  Q 1931.49 132.91 1931.48 6.33
  A 0.33 0.33 0.0 0 1 1931.81 6.00
  L 1990.81 6.00
  A 0.70 0.69 90.0 0 1 1991.50 6.70
  Z"
/>
</svg>
